<mxfile host="app.diagrams.net" agent="Mozilla/5.0 (Windows NT 10.0; Win64; x64) AppleWebKit/537.36 (KHTML, like Gecko) Chrome/136.0.0.0 Safari/537.36 Edg/136.0.0.0" version="27.0.9">
  <diagram name="Page-1" id="e7e014a7-5840-1c2e-5031-d8a46d1fe8dd">
    <mxGraphModel dx="1213" dy="625" grid="1" gridSize="10" guides="1" tooltips="1" connect="1" arrows="1" fold="1" page="1" pageScale="1" pageWidth="1169" pageHeight="826" background="none" math="0" shadow="0">
      <root>
        <mxCell id="0" />
        <mxCell id="1" parent="0" />
        <mxCell id="2" value="User" style="swimlane;whiteSpace=wrap" parent="1" vertex="1">
          <mxGeometry x="164.5" y="128" width="405" height="762" as="geometry" />
        </mxCell>
        <mxCell id="1y1yetbcXjhP6Hdd2NE7-49" style="edgeStyle=orthogonalEdgeStyle;rounded=0;orthogonalLoop=1;jettySize=auto;html=1;entryX=0.5;entryY=0;entryDx=0;entryDy=0;" parent="2" source="5" target="7" edge="1">
          <mxGeometry relative="1" as="geometry" />
        </mxCell>
        <mxCell id="5" value="" style="ellipse;shape=startState;fillColor=#000000;strokeColor=#ff0000;" parent="2" vertex="1">
          <mxGeometry x="150" y="40" width="30" height="30" as="geometry" />
        </mxCell>
        <mxCell id="7" value="Bấm chọn phần chỉnh sửa hồ sơ" style="" parent="2" vertex="1">
          <mxGeometry x="55" y="110" width="220" height="60" as="geometry" />
        </mxCell>
        <mxCell id="1y1yetbcXjhP6Hdd2NE7-53" style="edgeStyle=orthogonalEdgeStyle;rounded=0;orthogonalLoop=1;jettySize=auto;html=1;entryX=0.5;entryY=0;entryDx=0;entryDy=0;" parent="2" source="8" target="1y1yetbcXjhP6Hdd2NE7-45" edge="1">
          <mxGeometry relative="1" as="geometry" />
        </mxCell>
        <mxCell id="8" value="Chọn phần thông tin cần chỉnh sửa" style="" parent="2" vertex="1">
          <mxGeometry x="57.5" y="192" width="215" height="68" as="geometry" />
        </mxCell>
        <mxCell id="1y1yetbcXjhP6Hdd2NE7-63" value="" style="edgeStyle=orthogonalEdgeStyle;rounded=0;orthogonalLoop=1;jettySize=auto;html=1;" parent="2" source="1y1yetbcXjhP6Hdd2NE7-45" target="1y1yetbcXjhP6Hdd2NE7-62" edge="1">
          <mxGeometry relative="1" as="geometry" />
        </mxCell>
        <mxCell id="1y1yetbcXjhP6Hdd2NE7-45" value="Sửa thông tin" style="" parent="2" vertex="1">
          <mxGeometry x="95" y="302" width="140" height="68" as="geometry" />
        </mxCell>
        <mxCell id="1y1yetbcXjhP6Hdd2NE7-62" value="Nhấn nút lưu" style="" parent="2" vertex="1">
          <mxGeometry x="95" y="452" width="140" height="68" as="geometry" />
        </mxCell>
        <mxCell id="3" value="System" style="swimlane;whiteSpace=wrap;startSize=23;" parent="1" vertex="1">
          <mxGeometry x="569.5" y="128" width="320" height="764" as="geometry" />
        </mxCell>
        <mxCell id="18" value="chuyển người dùng sang giao diện chỉnh sửa hồ sơ" style="" parent="3" vertex="1">
          <mxGeometry x="17.5" y="106" width="292.5" height="54" as="geometry" />
        </mxCell>
        <mxCell id="1y1yetbcXjhP6Hdd2NE7-66" value="" style="edgeStyle=orthogonalEdgeStyle;rounded=0;orthogonalLoop=1;jettySize=auto;html=1;" parent="3" source="1y1yetbcXjhP6Hdd2NE7-56" target="1y1yetbcXjhP6Hdd2NE7-65" edge="1">
          <mxGeometry relative="1" as="geometry" />
        </mxCell>
        <mxCell id="1y1yetbcXjhP6Hdd2NE7-56" value="Cập nhật lại cơ sở dữ liệu hệ thống" style="" parent="3" vertex="1">
          <mxGeometry x="27.75" y="442" width="264.5" height="68" as="geometry" />
        </mxCell>
        <mxCell id="1y1yetbcXjhP6Hdd2NE7-70" style="edgeStyle=orthogonalEdgeStyle;rounded=0;orthogonalLoop=1;jettySize=auto;html=1;entryX=0;entryY=0.5;entryDx=0;entryDy=0;" parent="3" source="1y1yetbcXjhP6Hdd2NE7-65" target="1y1yetbcXjhP6Hdd2NE7-69" edge="1">
          <mxGeometry relative="1" as="geometry" />
        </mxCell>
        <mxCell id="1y1yetbcXjhP6Hdd2NE7-65" value="Thông báo sửa thành công thông tin hồ sơ" style="whiteSpace=wrap;html=1;" parent="3" vertex="1">
          <mxGeometry x="100" y="584" width="120" height="60" as="geometry" />
        </mxCell>
        <mxCell id="1y1yetbcXjhP6Hdd2NE7-69" value="" style="ellipse;html=1;shape=endState;fillColor=#000000;strokeColor=#ff0000;" parent="3" vertex="1">
          <mxGeometry x="270.5" y="599" width="30" height="30" as="geometry" />
        </mxCell>
        <mxCell id="1y1yetbcXjhP6Hdd2NE7-41" value="&lt;span style=&quot;font-size: 24px;&quot;&gt;Activity chỉnh sửa thông tin hồ sơ&lt;/span&gt;" style="text;html=1;align=center;verticalAlign=middle;resizable=0;points=[];autosize=1;strokeColor=none;fillColor=none;" parent="1" vertex="1">
          <mxGeometry x="330" y="83" width="380" height="40" as="geometry" />
        </mxCell>
        <mxCell id="1y1yetbcXjhP6Hdd2NE7-52" style="edgeStyle=orthogonalEdgeStyle;rounded=0;orthogonalLoop=1;jettySize=auto;html=1;entryX=1;entryY=0.25;entryDx=0;entryDy=0;" parent="1" source="18" target="8" edge="1">
          <mxGeometry relative="1" as="geometry">
            <Array as="points">
              <mxPoint x="640" y="337" />
            </Array>
          </mxGeometry>
        </mxCell>
        <mxCell id="1y1yetbcXjhP6Hdd2NE7-60" style="edgeStyle=orthogonalEdgeStyle;rounded=0;orthogonalLoop=1;jettySize=auto;html=1;entryX=0.014;entryY=0.638;entryDx=0;entryDy=0;entryPerimeter=0;" parent="1" source="7" target="18" edge="1">
          <mxGeometry relative="1" as="geometry" />
        </mxCell>
        <mxCell id="1y1yetbcXjhP6Hdd2NE7-64" style="edgeStyle=orthogonalEdgeStyle;rounded=0;orthogonalLoop=1;jettySize=auto;html=1;entryX=0.01;entryY=0.614;entryDx=0;entryDy=0;entryPerimeter=0;" parent="1" source="1y1yetbcXjhP6Hdd2NE7-62" target="1y1yetbcXjhP6Hdd2NE7-56" edge="1">
          <mxGeometry relative="1" as="geometry" />
        </mxCell>
      </root>
    </mxGraphModel>
  </diagram>
</mxfile>
